<?xml version="1.0" encoding="UTF-8" standalone="no"?>
<!DOCTYPE svg PUBLIC "-//W3C//DTD SVG 1.1//EN"
 "http://www.w3.org/Graphics/SVG/1.1/DTD/svg11.dtd">
<!-- Generated by graphviz version 2.40.1 (20161225.0304)
 -->
<!-- Title: compactImpliedRelationshipsDiagram Pages: 1 -->
<svg width="477pt" height="413pt"
 viewBox="0.00 0.00 477.00 413.20" xmlns="http://www.w3.org/2000/svg" xmlns:xlink="http://www.w3.org/1999/xlink">
<g id="graph0" class="graph" transform="scale(1 1) rotate(0) translate(4 409.2)">
<title>compactImpliedRelationshipsDiagram</title>
<polygon fill="#ffffff" stroke="transparent" points="-4,4 -4,-409.2 473,-409.2 473,4 -4,4"/>
<text text-anchor="middle" x="72.4936" y="-7.3" font-family="Helvetica,sans-Serif" font-size="11.00" fill="#000000">Generated by SchemaSpy</text>
<!-- next_review_date -->
<g id="node1" class="node">
<title>next_review_date</title>
<g id="a_node1"><a xlink:href="../../tables/next_review_date.html" xlink:title="next_review_date" target="_top">
<polygon fill="#ffffff" stroke="transparent" points="8,-274.2 8,-379.2 164,-379.2 164,-274.2 8,-274.2"/>
<polygon fill="#f5f5f5" stroke="transparent" points="8,-355.7 8,-378.7 164,-378.7 164,-355.7 8,-355.7"/>
<polygon fill="none" stroke="#000000" points="8,-355.7 8,-378.7 164,-378.7 164,-355.7 8,-355.7"/>
<text text-anchor="start" x="13" y="-364.3" font-family="Helvetica,sans-Serif" font-weight="bold" font-size="11.00" fill="#000000">next_review_date</text>
<text text-anchor="start" x="129.5219" y="-363.8" font-family="Helvetica,sans-Serif" font-size="11.00" fill="#000000">[table]</text>
<polygon fill="none" stroke="#000000" points="8,-333.7 8,-355.7 164,-355.7 164,-333.7 8,-333.7"/>
<image xlink:href="../../images/primaryKeys.png" width="11px" height="12px" preserveAspectRatio="xMinYMin meet" x="13" y="-350.7"/>
<text text-anchor="start" x="37" y="-340.8" font-family="Helvetica,sans-Serif" font-size="11.00" fill="#000000">booking_id</text>
<polygon fill="#ffffff" stroke="transparent" points="8,-311.7 8,-333.7 164,-333.7 164,-311.7 8,-311.7"/>
<polygon fill="none" stroke="#000000" points="8,-311.7 8,-333.7 164,-333.7 164,-311.7 8,-311.7"/>
<text text-anchor="start" x="37" y="-318.8" font-family="Helvetica,sans-Serif" font-size="11.00" fill="#000000">next_review_date</text>
<polygon fill="none" stroke="#000000" points="8,-292.7 8,-311.7 164,-311.7 164,-292.7 8,-292.7"/>
<text text-anchor="start" x="11" y="-298.8" font-family="Helvetica,sans-Serif" font-size="11.00" fill="#000000">...</text>
<polygon fill="#ffffff" stroke="transparent" points="8,-273.7 8,-292.7 80,-292.7 80,-273.7 8,-273.7"/>
<polygon fill="none" stroke="#000000" points="8,-273.7 8,-292.7 80,-292.7 80,-273.7 8,-273.7"/>
<text text-anchor="start" x="11" y="-279.8" font-family="Helvetica,sans-Serif" font-size="11.00" fill="#000000"> &#160;</text>
<polygon fill="#ffffff" stroke="transparent" points="80,-273.7 80,-292.7 122,-292.7 122,-273.7 80,-273.7"/>
<polygon fill="none" stroke="#000000" points="80,-273.7 80,-292.7 122,-292.7 122,-273.7 80,-273.7"/>
<text text-anchor="start" x="112.8862" y="-279.8" font-family="Helvetica,sans-Serif" font-size="11.00" fill="#000000"> &#160;</text>
<polygon fill="#ffffff" stroke="transparent" points="122,-273.7 122,-292.7 164,-292.7 164,-273.7 122,-273.7"/>
<polygon fill="none" stroke="#000000" points="122,-273.7 122,-292.7 164,-292.7 164,-273.7 122,-273.7"/>
<text text-anchor="start" x="154.8862" y="-279.8" font-family="Helvetica,sans-Serif" font-size="11.00" fill="#000000"> &#160;</text>
</a>
</g>
</g>
<!-- prison_incentive_level -->
<g id="node2" class="node">
<title>prison_incentive_level</title>
<g id="a_node2"><a xlink:href="../../tables/prison_incentive_level.html" xlink:title="prison_incentive_level" target="_top">
<polygon fill="#ffffff" stroke="transparent" points="213,-38.2 213,-187.2 461,-187.2 461,-38.2 213,-38.2"/>
<polygon fill="#f5f5f5" stroke="transparent" points="213,-163.7 213,-186.7 461,-186.7 461,-163.7 213,-163.7"/>
<polygon fill="none" stroke="#000000" points="213,-163.7 213,-186.7 461,-186.7 461,-163.7 213,-163.7"/>
<text text-anchor="start" x="218" y="-172.3" font-family="Helvetica,sans-Serif" font-weight="bold" font-size="11.00" fill="#000000">prison_incentive_level</text>
<text text-anchor="start" x="426.0437" y="-171.8" font-family="Helvetica,sans-Serif" font-size="11.00" fill="#000000">[table]</text>
<polygon fill="none" stroke="#000000" points="213,-141.7 213,-163.7 461,-163.7 461,-141.7 213,-141.7"/>
<image xlink:href="../../images/primaryKeys.png" width="11px" height="12px" preserveAspectRatio="xMinYMin meet" x="218" y="-158.7"/>
<text text-anchor="start" x="233" y="-148.8" font-family="Helvetica,sans-Serif" font-size="11.00" fill="#000000">id</text>
<polygon fill="#ffffff" stroke="transparent" points="213,-119.7 213,-141.7 461,-141.7 461,-119.7 213,-119.7"/>
<polygon fill="none" stroke="#000000" points="213,-119.7 213,-141.7 461,-141.7 461,-119.7 213,-119.7"/>
<image xlink:href="../../images/foreignKeys.png" width="11px" height="12px" preserveAspectRatio="xMinYMin meet" x="218" y="-136.7"/>
<text text-anchor="start" x="233" y="-126.8" font-family="Helvetica,sans-Serif" font-size="11.00" fill="#000000">level_code</text>
<polygon fill="#ffffff" stroke="transparent" points="213,-97.7 213,-119.7 461,-119.7 461,-97.7 213,-97.7"/>
<polygon fill="none" stroke="#000000" points="213,-97.7 213,-119.7 461,-119.7 461,-97.7 213,-97.7"/>
<text text-anchor="start" x="233" y="-104.8" font-family="Helvetica,sans-Serif" font-size="11.00" fill="#000000">prison_id</text>
<polygon fill="#ffffff" stroke="transparent" points="213,-75.7 213,-97.7 461,-97.7 461,-75.7 213,-75.7"/>
<polygon fill="none" stroke="#000000" points="213,-75.7 213,-97.7 461,-97.7 461,-75.7 213,-75.7"/>
<text text-anchor="start" x="233" y="-82.8" font-family="Helvetica,sans-Serif" font-size="11.00" fill="#000000">active</text>
<polygon fill="none" stroke="#000000" points="213,-56.7 213,-75.7 461,-75.7 461,-56.7 213,-56.7"/>
<text text-anchor="start" x="216" y="-62.8" font-family="Helvetica,sans-Serif" font-size="11.00" fill="#000000">...</text>
<polygon fill="#ffffff" stroke="transparent" points="213,-37.7 213,-56.7 335,-56.7 335,-37.7 213,-37.7"/>
<polygon fill="none" stroke="#000000" points="213,-37.7 213,-56.7 335,-56.7 335,-37.7 213,-37.7"/>
<text text-anchor="start" x="216" y="-43.8" font-family="Helvetica,sans-Serif" font-size="11.00" fill="#000000">&lt; 1</text>
<polygon fill="#ffffff" stroke="transparent" points="335,-37.7 335,-56.7 398,-56.7 398,-37.7 335,-37.7"/>
<polygon fill="none" stroke="#000000" points="335,-37.7 335,-56.7 398,-56.7 398,-37.7 335,-37.7"/>
<text text-anchor="start" x="388.8862" y="-43.8" font-family="Helvetica,sans-Serif" font-size="11.00" fill="#000000"> &#160;</text>
<polygon fill="#ffffff" stroke="transparent" points="398,-37.7 398,-56.7 461,-56.7 461,-37.7 398,-37.7"/>
<polygon fill="none" stroke="#000000" points="398,-37.7 398,-56.7 461,-56.7 461,-37.7 398,-37.7"/>
<text text-anchor="start" x="451.8862" y="-43.8" font-family="Helvetica,sans-Serif" font-size="11.00" fill="#000000"> &#160;</text>
</a>
</g>
</g>
<!-- incentive_level -->
<g id="node3" class="node">
<title>incentive_level</title>
<g id="a_node3"><a xlink:href="../../tables/incentive_level.html" xlink:title="incentive_level" target="_top">
<polygon fill="#ffffff" stroke="transparent" points="16.5,-82.2 16.5,-209.2 155.5,-209.2 155.5,-82.2 16.5,-82.2"/>
<polygon fill="#f5f5f5" stroke="transparent" points="17,-185.7 17,-208.7 156,-208.7 156,-185.7 17,-185.7"/>
<polygon fill="none" stroke="#000000" points="17,-185.7 17,-208.7 156,-208.7 156,-185.7 17,-185.7"/>
<text text-anchor="start" x="22" y="-194.3" font-family="Helvetica,sans-Serif" font-weight="bold" font-size="11.00" fill="#000000">incentive_level</text>
<text text-anchor="start" x="121.5219" y="-193.8" font-family="Helvetica,sans-Serif" font-size="11.00" fill="#000000">[table]</text>
<polygon fill="none" stroke="#000000" points="17,-163.7 17,-185.7 156,-185.7 156,-163.7 17,-163.7"/>
<image xlink:href="../../images/primaryKeys.png" width="11px" height="12px" preserveAspectRatio="xMinYMin meet" x="22" y="-180.7"/>
<text text-anchor="start" x="46" y="-170.8" font-family="Helvetica,sans-Serif" font-size="11.00" fill="#000000">code</text>
<polygon fill="#ffffff" stroke="transparent" points="17,-141.7 17,-163.7 156,-163.7 156,-141.7 17,-141.7"/>
<polygon fill="none" stroke="#000000" points="17,-141.7 17,-163.7 156,-163.7 156,-141.7 17,-141.7"/>
<text text-anchor="start" x="46" y="-148.8" font-family="Helvetica,sans-Serif" font-size="11.00" fill="#000000">sequence</text>
<polygon fill="#ffffff" stroke="transparent" points="17,-119.7 17,-141.7 156,-141.7 156,-119.7 17,-119.7"/>
<polygon fill="none" stroke="#000000" points="17,-119.7 17,-141.7 156,-141.7 156,-119.7 17,-119.7"/>
<text text-anchor="start" x="46" y="-126.8" font-family="Helvetica,sans-Serif" font-size="11.00" fill="#000000">active</text>
<polygon fill="none" stroke="#000000" points="17,-100.7 17,-119.7 156,-119.7 156,-100.7 17,-100.7"/>
<text text-anchor="start" x="20" y="-106.8" font-family="Helvetica,sans-Serif" font-size="11.00" fill="#000000">...</text>
<polygon fill="#ffffff" stroke="transparent" points="17,-81.7 17,-100.7 76,-100.7 76,-81.7 17,-81.7"/>
<polygon fill="none" stroke="#000000" points="17,-81.7 17,-100.7 76,-100.7 76,-81.7 17,-81.7"/>
<text text-anchor="start" x="20" y="-87.8" font-family="Helvetica,sans-Serif" font-size="11.00" fill="#000000"> &#160;</text>
<polygon fill="#ffffff" stroke="transparent" points="76,-81.7 76,-100.7 111,-100.7 111,-81.7 76,-81.7"/>
<polygon fill="none" stroke="#000000" points="76,-81.7 76,-100.7 111,-100.7 111,-81.7 76,-81.7"/>
<text text-anchor="start" x="101.8862" y="-87.8" font-family="Helvetica,sans-Serif" font-size="11.00" fill="#000000"> &#160;</text>
<polygon fill="#ffffff" stroke="transparent" points="111,-81.7 111,-100.7 156,-100.7 156,-81.7 111,-81.7"/>
<polygon fill="none" stroke="#000000" points="111,-81.7 111,-100.7 156,-100.7 156,-81.7 111,-81.7"/>
<text text-anchor="start" x="137.4053" y="-87.8" font-family="Helvetica,sans-Serif" font-size="11.00" fill="#000000">2 &gt;</text>
</a>
</g>
</g>
<!-- prison_incentive_level&#45;&gt;incentive_level -->
<g id="edge1" class="edge">
<title>prison_incentive_level:w&#45;&gt;incentive_level:e</title>
<path fill="none" stroke="#000000" d="M199.0742,-134.4514C182.2552,-145.0918 182.2525,-174.7 156,-174.7"/>
<polygon fill="#000000" stroke="#000000" points="205.2754,-132.781 213.9364,-134.1761 209.1377,-131.7405 213,-130.7 213,-130.7 213,-130.7 209.1377,-131.7405 212.0636,-127.2239 205.2754,-132.781 205.2754,-132.781"/>
<ellipse fill="none" stroke="#000000" cx="202.1855" cy="-133.6133" rx="3.2" ry="3.2"/>
</g>
<!-- prisoner_iep_level -->
<g id="node4" class="node">
<title>prisoner_iep_level</title>
<g id="a_node4"><a xlink:href="../../tables/prisoner_iep_level.html" xlink:title="prisoner_iep_level" target="_top">
<polygon fill="#ffffff" stroke="transparent" points="257,-208.2 257,-401.2 417,-401.2 417,-208.2 257,-208.2"/>
<polygon fill="#f5f5f5" stroke="transparent" points="257,-377.7 257,-400.7 417,-400.7 417,-377.7 257,-377.7"/>
<polygon fill="none" stroke="#000000" points="257,-377.7 257,-400.7 417,-400.7 417,-377.7 257,-377.7"/>
<text text-anchor="start" x="262" y="-386.3" font-family="Helvetica,sans-Serif" font-weight="bold" font-size="11.00" fill="#000000">prisoner_iep_level</text>
<text text-anchor="start" x="382.5219" y="-385.8" font-family="Helvetica,sans-Serif" font-size="11.00" fill="#000000">[table]</text>
<polygon fill="none" stroke="#000000" points="257,-355.7 257,-377.7 417,-377.7 417,-355.7 257,-355.7"/>
<image xlink:href="../../images/primaryKeys.png" width="11px" height="12px" preserveAspectRatio="xMinYMin meet" x="262" y="-372.7"/>
<text text-anchor="start" x="286" y="-362.8" font-family="Helvetica,sans-Serif" font-size="11.00" fill="#000000">id</text>
<polygon fill="#ffffff" stroke="transparent" points="257,-333.7 257,-355.7 417,-355.7 417,-333.7 257,-333.7"/>
<polygon fill="none" stroke="#000000" points="257,-333.7 257,-355.7 417,-355.7 417,-333.7 257,-333.7"/>
<image xlink:href="../../images/foreignKeys.png" width="11px" height="12px" preserveAspectRatio="xMinYMin meet" x="262" y="-350.7"/>
<text text-anchor="start" x="286" y="-340.8" font-family="Helvetica,sans-Serif" font-size="11.00" fill="#000000">booking_id</text>
<polygon fill="#ffffff" stroke="transparent" points="257,-311.7 257,-333.7 417,-333.7 417,-311.7 257,-311.7"/>
<polygon fill="none" stroke="#000000" points="257,-311.7 257,-333.7 417,-333.7 417,-311.7 257,-311.7"/>
<text text-anchor="start" x="286" y="-318.8" font-family="Helvetica,sans-Serif" font-size="11.00" fill="#000000">prisoner_number</text>
<polygon fill="#ffffff" stroke="transparent" points="257,-289.7 257,-311.7 417,-311.7 417,-289.7 257,-289.7"/>
<polygon fill="none" stroke="#000000" points="257,-289.7 257,-311.7 417,-311.7 417,-289.7 257,-289.7"/>
<text text-anchor="start" x="286" y="-296.8" font-family="Helvetica,sans-Serif" font-size="11.00" fill="#000000">prison_id</text>
<polygon fill="#ffffff" stroke="transparent" points="257,-267.7 257,-289.7 417,-289.7 417,-267.7 257,-267.7"/>
<polygon fill="none" stroke="#000000" points="257,-267.7 257,-289.7 417,-289.7 417,-267.7 257,-267.7"/>
<text text-anchor="start" x="286" y="-274.8" font-family="Helvetica,sans-Serif" font-size="11.00" fill="#000000">location_id</text>
<polygon fill="#ffffff" stroke="transparent" points="257,-245.7 257,-267.7 417,-267.7 417,-245.7 257,-245.7"/>
<polygon fill="none" stroke="#000000" points="257,-245.7 257,-267.7 417,-267.7 417,-245.7 257,-245.7"/>
<image xlink:href="../../images/foreignKeys.png" width="11px" height="12px" preserveAspectRatio="xMinYMin meet" x="262" y="-262.7"/>
<text text-anchor="start" x="286" y="-252.8" font-family="Helvetica,sans-Serif" font-size="11.00" fill="#000000">iep_code</text>
<polygon fill="none" stroke="#000000" points="257,-226.7 257,-245.7 417,-245.7 417,-226.7 257,-226.7"/>
<text text-anchor="start" x="260" y="-232.8" font-family="Helvetica,sans-Serif" font-size="11.00" fill="#000000">...</text>
<polygon fill="#ffffff" stroke="transparent" points="257,-207.7 257,-226.7 335,-226.7 335,-207.7 257,-207.7"/>
<polygon fill="none" stroke="#000000" points="257,-207.7 257,-226.7 335,-226.7 335,-207.7 257,-207.7"/>
<text text-anchor="start" x="260" y="-213.8" font-family="Helvetica,sans-Serif" font-size="11.00" fill="#000000">&lt; 1</text>
<polygon fill="#ffffff" stroke="transparent" points="335,-207.7 335,-226.7 376,-226.7 376,-207.7 335,-207.7"/>
<polygon fill="none" stroke="#000000" points="335,-207.7 335,-226.7 376,-226.7 376,-207.7 335,-207.7"/>
<text text-anchor="start" x="366.8862" y="-213.8" font-family="Helvetica,sans-Serif" font-size="11.00" fill="#000000"> &#160;</text>
<polygon fill="#ffffff" stroke="transparent" points="376,-207.7 376,-226.7 417,-226.7 417,-207.7 376,-207.7"/>
<polygon fill="none" stroke="#000000" points="376,-207.7 376,-226.7 417,-226.7 417,-207.7 376,-207.7"/>
<text text-anchor="start" x="407.8862" y="-213.8" font-family="Helvetica,sans-Serif" font-size="11.00" fill="#000000"> &#160;</text>
</a>
</g>
</g>
<!-- prisoner_iep_level&#45;&gt;next_review_date -->
<g id="edge2" class="edge">
<title>prisoner_iep_level:w&#45;&gt;next_review_date:e</title>
<path fill="none" stroke="#000000" stroke-dasharray="5,2" d="M246.5651,-344.7C213.5597,-344.7 201.6198,-344.7 164,-344.7"/>
<polygon fill="#000000" stroke="#000000" points="256.2,-340.7 256.2,-348.7 254.6,-348.7 254.6,-340.7 256.2,-340.7"/>
<polyline fill="none" stroke="#000000" points="257,-344.7 253,-344.7 "/>
<ellipse fill="none" stroke="#000000" cx="249.8" cy="-344.7001" rx="3.2" ry="3.2"/>
</g>
<!-- prisoner_iep_level&#45;&gt;incentive_level -->
<g id="edge3" class="edge">
<title>prisoner_iep_level:w&#45;&gt;incentive_level:e</title>
<path fill="none" stroke="#000000" d="M242.5292,-254.673C201.2878,-242.0457 208.3998,-174.7 156,-174.7"/>
<polygon fill="#000000" stroke="#000000" points="249.0773,-255.5902 256.5006,-260.2652 253.0387,-256.1451 257,-256.7 257,-256.7 257,-256.7 253.0387,-256.1451 257.4994,-253.1348 249.0773,-255.5902 249.0773,-255.5902"/>
<ellipse fill="none" stroke="#000000" cx="245.9083" cy="-255.1463" rx="3.2" ry="3.2"/>
</g>
</g>
</svg>
