<?xml version="1.0" encoding="UTF-8" standalone="no"?>
<!DOCTYPE svg PUBLIC "-//W3C//DTD SVG 1.1//EN"
 "http://www.w3.org/Graphics/SVG/1.1/DTD/svg11.dtd">
<!-- Generated by graphviz version 2.40.1 (20161225.0304)
 -->
<!-- Title: oneDegreeRelationshipsDiagram Pages: 1 -->
<svg width="538pt" height="413pt"
 viewBox="0.00 0.00 538.00 413.20" xmlns="http://www.w3.org/2000/svg" xmlns:xlink="http://www.w3.org/1999/xlink">
<g id="graph0" class="graph" transform="scale(1 1) rotate(0) translate(4 409.2)">
<title>oneDegreeRelationshipsDiagram</title>
<polygon fill="#ffffff" stroke="transparent" points="-4,4 -4,-409.2 534,-409.2 534,4 -4,4"/>
<text text-anchor="middle" x="72.4936" y="-7.3" font-family="Helvetica,sans-Serif" font-size="11.00" fill="#000000">Generated by SchemaSpy</text>
<!-- prison_incentive_level -->
<g id="node1" class="node">
<title>prison_incentive_level</title>
<g id="a_node1"><a xlink:href="../../tables/prison_incentive_level.html" xlink:title="prison_incentive_level" target="_top">
<polygon fill="#ffffff" stroke="transparent" points="274,-252.2 274,-401.2 522,-401.2 522,-252.2 274,-252.2"/>
<polygon fill="#f5f5f5" stroke="transparent" points="274,-377.7 274,-400.7 522,-400.7 522,-377.7 274,-377.7"/>
<polygon fill="none" stroke="#000000" points="274,-377.7 274,-400.7 522,-400.7 522,-377.7 274,-377.7"/>
<text text-anchor="start" x="279" y="-386.3" font-family="Helvetica,sans-Serif" font-weight="bold" font-size="11.00" fill="#000000">prison_incentive_level</text>
<text text-anchor="start" x="487.0437" y="-385.8" font-family="Helvetica,sans-Serif" font-size="11.00" fill="#000000">[table]</text>
<polygon fill="none" stroke="#000000" points="274,-355.7 274,-377.7 522,-377.7 522,-355.7 274,-355.7"/>
<image xlink:href="../../images/primaryKeys.png" width="11px" height="12px" preserveAspectRatio="xMinYMin meet" x="279" y="-372.7"/>
<text text-anchor="start" x="294" y="-362.8" font-family="Helvetica,sans-Serif" font-size="11.00" fill="#000000">id</text>
<polygon fill="#ffffff" stroke="transparent" points="274,-333.7 274,-355.7 522,-355.7 522,-333.7 274,-333.7"/>
<polygon fill="none" stroke="#000000" points="274,-333.7 274,-355.7 522,-355.7 522,-333.7 274,-333.7"/>
<image xlink:href="../../images/foreignKeys.png" width="11px" height="12px" preserveAspectRatio="xMinYMin meet" x="279" y="-350.7"/>
<text text-anchor="start" x="294" y="-340.8" font-family="Helvetica,sans-Serif" font-size="11.00" fill="#000000">level_code</text>
<polygon fill="#ffffff" stroke="transparent" points="274,-311.7 274,-333.7 522,-333.7 522,-311.7 274,-311.7"/>
<polygon fill="none" stroke="#000000" points="274,-311.7 274,-333.7 522,-333.7 522,-311.7 274,-311.7"/>
<text text-anchor="start" x="294" y="-318.8" font-family="Helvetica,sans-Serif" font-size="11.00" fill="#000000">prison_id</text>
<polygon fill="#ffffff" stroke="transparent" points="274,-289.7 274,-311.7 522,-311.7 522,-289.7 274,-289.7"/>
<polygon fill="none" stroke="#000000" points="274,-289.7 274,-311.7 522,-311.7 522,-289.7 274,-289.7"/>
<text text-anchor="start" x="294" y="-296.8" font-family="Helvetica,sans-Serif" font-size="11.00" fill="#000000">active</text>
<polygon fill="none" stroke="#000000" points="274,-270.7 274,-289.7 522,-289.7 522,-270.7 274,-270.7"/>
<text text-anchor="start" x="277" y="-276.8" font-family="Helvetica,sans-Serif" font-size="11.00" fill="#000000">...</text>
<polygon fill="#ffffff" stroke="transparent" points="274,-251.7 274,-270.7 396,-270.7 396,-251.7 274,-251.7"/>
<polygon fill="none" stroke="#000000" points="274,-251.7 274,-270.7 396,-270.7 396,-251.7 274,-251.7"/>
<text text-anchor="start" x="277" y="-257.8" font-family="Helvetica,sans-Serif" font-size="11.00" fill="#000000">&lt; 1</text>
<polygon fill="#ffffff" stroke="transparent" points="396,-251.7 396,-270.7 459,-270.7 459,-251.7 396,-251.7"/>
<polygon fill="none" stroke="#000000" points="396,-251.7 396,-270.7 459,-270.7 459,-251.7 396,-251.7"/>
<text text-anchor="start" x="449.8862" y="-257.8" font-family="Helvetica,sans-Serif" font-size="11.00" fill="#000000"> &#160;</text>
<polygon fill="#ffffff" stroke="transparent" points="459,-251.7 459,-270.7 522,-270.7 522,-251.7 459,-251.7"/>
<polygon fill="none" stroke="#000000" points="459,-251.7 459,-270.7 522,-270.7 522,-251.7 459,-251.7"/>
<text text-anchor="start" x="512.8862" y="-257.8" font-family="Helvetica,sans-Serif" font-size="11.00" fill="#000000"> &#160;</text>
</a>
</g>
</g>
<!-- incentive_level -->
<g id="node2" class="node">
<title>incentive_level</title>
<g id="a_node2"><a xlink:href="../../tables/incentive_level.html" xlink:title="incentive_level" target="_top">
<polygon fill="#ffffff" stroke="transparent" points="8,-51.7 8,-251.7 225,-251.7 225,-51.7 8,-51.7"/>
<polygon fill="#f5f5f5" stroke="transparent" points="10.5,-226.7 10.5,-249.7 223.5,-249.7 223.5,-226.7 10.5,-226.7"/>
<polygon fill="none" stroke="#000000" points="10.5,-226.7 10.5,-249.7 223.5,-249.7 223.5,-226.7 10.5,-226.7"/>
<text text-anchor="start" x="15.5" y="-235.3" font-family="Helvetica,sans-Serif" font-weight="bold" font-size="11.00" fill="#000000">incentive_level</text>
<text text-anchor="start" x="188.5437" y="-234.8" font-family="Helvetica,sans-Serif" font-size="11.00" fill="#000000">[table]</text>
<polygon fill="none" stroke="#000000" points="10.5,-204.7 10.5,-226.7 131.5,-226.7 131.5,-204.7 10.5,-204.7"/>
<image xlink:href="../../images/primaryKeys.png" width="11px" height="12px" preserveAspectRatio="xMinYMin meet" x="15.5" y="-221.7"/>
<text text-anchor="start" x="30.5" y="-211.8" font-family="Helvetica,sans-Serif" font-size="11.00" fill="#000000">code</text>
<polygon fill="none" stroke="#000000" points="131.5,-204.7 131.5,-226.7 223.5,-226.7 223.5,-204.7 131.5,-204.7"/>
<text text-anchor="start" x="134.5" y="-212.4" font-family="Helvetica,sans-Serif" font-size="11.00" fill="#000000">varchar[6]</text>
<polygon fill="none" stroke="#000000" points="10.5,-182.7 10.5,-204.7 131.5,-204.7 131.5,-182.7 10.5,-182.7"/>
<text text-anchor="start" x="30.5" y="-189.8" font-family="Helvetica,sans-Serif" font-size="11.00" fill="#000000">name</text>
<polygon fill="none" stroke="#000000" points="131.5,-182.7 131.5,-204.7 223.5,-204.7 223.5,-182.7 131.5,-182.7"/>
<text text-anchor="start" x="134.5" y="-190.4" font-family="Helvetica,sans-Serif" font-size="11.00" fill="#000000">varchar[30]</text>
<polygon fill="#ffffff" stroke="transparent" points="10.5,-160.7 10.5,-182.7 131.5,-182.7 131.5,-160.7 10.5,-160.7"/>
<polygon fill="none" stroke="#000000" points="10.5,-160.7 10.5,-182.7 131.5,-182.7 131.5,-160.7 10.5,-160.7"/>
<text text-anchor="start" x="30.5" y="-167.8" font-family="Helvetica,sans-Serif" font-size="11.00" fill="#000000">sequence</text>
<polygon fill="none" stroke="#000000" points="131.5,-160.7 131.5,-182.7 223.5,-182.7 223.5,-160.7 131.5,-160.7"/>
<text text-anchor="start" x="134.5" y="-168.4" font-family="Helvetica,sans-Serif" font-size="11.00" fill="#000000">int2[5]</text>
<polygon fill="#ffffff" stroke="transparent" points="10.5,-138.7 10.5,-160.7 131.5,-160.7 131.5,-138.7 10.5,-138.7"/>
<polygon fill="none" stroke="#000000" points="10.5,-138.7 10.5,-160.7 131.5,-160.7 131.5,-138.7 10.5,-138.7"/>
<text text-anchor="start" x="30.5" y="-145.8" font-family="Helvetica,sans-Serif" font-size="11.00" fill="#000000">active</text>
<polygon fill="none" stroke="#000000" points="131.5,-138.7 131.5,-160.7 223.5,-160.7 223.5,-138.7 131.5,-138.7"/>
<text text-anchor="start" x="134.5" y="-146.4" font-family="Helvetica,sans-Serif" font-size="11.00" fill="#000000">bool[1]</text>
<polygon fill="none" stroke="#000000" points="10.5,-116.7 10.5,-138.7 131.5,-138.7 131.5,-116.7 10.5,-116.7"/>
<text text-anchor="start" x="30.5" y="-123.8" font-family="Helvetica,sans-Serif" font-size="11.00" fill="#000000">when_created</text>
<polygon fill="none" stroke="#000000" points="131.5,-116.7 131.5,-138.7 223.5,-138.7 223.5,-116.7 131.5,-116.7"/>
<text text-anchor="start" x="134.1023" y="-124.4" font-family="Helvetica,sans-Serif" font-size="11.00" fill="#000000">timestamptz[35,6]</text>
<polygon fill="none" stroke="#000000" points="10.5,-94.7 10.5,-116.7 131.5,-116.7 131.5,-94.7 10.5,-94.7"/>
<text text-anchor="start" x="30.5" y="-101.8" font-family="Helvetica,sans-Serif" font-size="11.00" fill="#000000">when_updated</text>
<polygon fill="none" stroke="#000000" points="131.5,-94.7 131.5,-116.7 223.5,-116.7 223.5,-94.7 131.5,-94.7"/>
<text text-anchor="start" x="134.1023" y="-102.4" font-family="Helvetica,sans-Serif" font-size="11.00" fill="#000000">timestamptz[35,6]</text>
<polygon fill="none" stroke="#000000" points="10.5,-72.7 10.5,-94.7 131.5,-94.7 131.5,-72.7 10.5,-72.7"/>
<text text-anchor="start" x="30.5" y="-79.8" font-family="Helvetica,sans-Serif" font-size="11.00" fill="#000000">required</text>
<polygon fill="none" stroke="#000000" points="131.5,-72.7 131.5,-94.7 223.5,-94.7 223.5,-72.7 131.5,-72.7"/>
<text text-anchor="start" x="134.5" y="-80.4" font-family="Helvetica,sans-Serif" font-size="11.00" fill="#000000">bool[1]</text>
<polygon fill="#ffffff" stroke="transparent" points="10.5,-53.7 10.5,-72.7 75.5,-72.7 75.5,-53.7 10.5,-53.7"/>
<polygon fill="none" stroke="#000000" points="10.5,-53.7 10.5,-72.7 75.5,-72.7 75.5,-53.7 10.5,-53.7"/>
<text text-anchor="start" x="13.5" y="-59.8" font-family="Helvetica,sans-Serif" font-size="11.00" fill="#000000">&lt; 0</text>
<polygon fill="#ffffff" stroke="transparent" points="75.5,-53.7 75.5,-72.7 131.5,-72.7 131.5,-53.7 75.5,-53.7"/>
<polygon fill="none" stroke="#000000" points="75.5,-53.7 75.5,-72.7 131.5,-72.7 131.5,-53.7 75.5,-53.7"/>
<text text-anchor="start" x="122.3862" y="-59.8" font-family="Helvetica,sans-Serif" font-size="11.00" fill="#000000"> &#160;</text>
<polygon fill="#ffffff" stroke="transparent" points="131.5,-53.7 131.5,-72.7 223.5,-72.7 223.5,-53.7 131.5,-53.7"/>
<polygon fill="none" stroke="#000000" points="131.5,-53.7 131.5,-72.7 223.5,-72.7 223.5,-53.7 131.5,-53.7"/>
<text text-anchor="start" x="204.9053" y="-59.8" font-family="Helvetica,sans-Serif" font-size="11.00" fill="#000000">2 &gt;</text>
<polygon fill="none" stroke="#000000" stroke-width="2" points="9,-52.7 9,-250.7 224,-250.7 224,-52.7 9,-52.7"/>
</a>
</g>
</g>
<!-- prison_incentive_level&#45;&gt;incentive_level -->
<g id="edge1" class="edge">
<title>prison_incentive_level:w&#45;&gt;incentive_level:e</title>
<path fill="none" stroke="#000000" d="M259.5517,-341.2496C225.3376,-320.7349 279.0573,-215.7 223.5,-215.7"/>
<polygon fill="#000000" stroke="#000000" points="266.2188,-342.8417 273.1638,-348.2015 270.1094,-343.7709 274,-344.7 274,-344.7 274,-344.7 270.1094,-343.7709 274.8362,-341.1985 266.2188,-342.8417 266.2188,-342.8417"/>
<ellipse fill="none" stroke="#000000" cx="263.1063" cy="-342.0984" rx="3.2" ry="3.2"/>
</g>
<!-- prisoner_iep_level -->
<g id="node3" class="node">
<title>prisoner_iep_level</title>
<g id="a_node3"><a xlink:href="../../tables/prisoner_iep_level.html" xlink:title="prisoner_iep_level" target="_top">
<polygon fill="#ffffff" stroke="transparent" points="318,-38.2 318,-231.2 478,-231.2 478,-38.2 318,-38.2"/>
<polygon fill="#f5f5f5" stroke="transparent" points="318,-207.7 318,-230.7 478,-230.7 478,-207.7 318,-207.7"/>
<polygon fill="none" stroke="#000000" points="318,-207.7 318,-230.7 478,-230.7 478,-207.7 318,-207.7"/>
<text text-anchor="start" x="323" y="-216.3" font-family="Helvetica,sans-Serif" font-weight="bold" font-size="11.00" fill="#000000">prisoner_iep_level</text>
<text text-anchor="start" x="443.5219" y="-215.8" font-family="Helvetica,sans-Serif" font-size="11.00" fill="#000000">[table]</text>
<polygon fill="none" stroke="#000000" points="318,-185.7 318,-207.7 478,-207.7 478,-185.7 318,-185.7"/>
<image xlink:href="../../images/primaryKeys.png" width="11px" height="12px" preserveAspectRatio="xMinYMin meet" x="323" y="-202.7"/>
<text text-anchor="start" x="347" y="-192.8" font-family="Helvetica,sans-Serif" font-size="11.00" fill="#000000">id</text>
<polygon fill="#ffffff" stroke="transparent" points="318,-163.7 318,-185.7 478,-185.7 478,-163.7 318,-163.7"/>
<polygon fill="none" stroke="#000000" points="318,-163.7 318,-185.7 478,-185.7 478,-163.7 318,-163.7"/>
<image xlink:href="../../images/foreignKeys.png" width="11px" height="12px" preserveAspectRatio="xMinYMin meet" x="323" y="-180.7"/>
<text text-anchor="start" x="347" y="-170.8" font-family="Helvetica,sans-Serif" font-size="11.00" fill="#000000">booking_id</text>
<polygon fill="#ffffff" stroke="transparent" points="318,-141.7 318,-163.7 478,-163.7 478,-141.7 318,-141.7"/>
<polygon fill="none" stroke="#000000" points="318,-141.7 318,-163.7 478,-163.7 478,-141.7 318,-141.7"/>
<text text-anchor="start" x="347" y="-148.8" font-family="Helvetica,sans-Serif" font-size="11.00" fill="#000000">prisoner_number</text>
<polygon fill="#ffffff" stroke="transparent" points="318,-119.7 318,-141.7 478,-141.7 478,-119.7 318,-119.7"/>
<polygon fill="none" stroke="#000000" points="318,-119.7 318,-141.7 478,-141.7 478,-119.7 318,-119.7"/>
<text text-anchor="start" x="347" y="-126.8" font-family="Helvetica,sans-Serif" font-size="11.00" fill="#000000">prison_id</text>
<polygon fill="#ffffff" stroke="transparent" points="318,-97.7 318,-119.7 478,-119.7 478,-97.7 318,-97.7"/>
<polygon fill="none" stroke="#000000" points="318,-97.7 318,-119.7 478,-119.7 478,-97.7 318,-97.7"/>
<text text-anchor="start" x="347" y="-104.8" font-family="Helvetica,sans-Serif" font-size="11.00" fill="#000000">location_id</text>
<polygon fill="#ffffff" stroke="transparent" points="318,-75.7 318,-97.7 478,-97.7 478,-75.7 318,-75.7"/>
<polygon fill="none" stroke="#000000" points="318,-75.7 318,-97.7 478,-97.7 478,-75.7 318,-75.7"/>
<image xlink:href="../../images/foreignKeys.png" width="11px" height="12px" preserveAspectRatio="xMinYMin meet" x="323" y="-92.7"/>
<text text-anchor="start" x="347" y="-82.8" font-family="Helvetica,sans-Serif" font-size="11.00" fill="#000000">iep_code</text>
<polygon fill="none" stroke="#000000" points="318,-56.7 318,-75.7 478,-75.7 478,-56.7 318,-56.7"/>
<text text-anchor="start" x="321" y="-62.8" font-family="Helvetica,sans-Serif" font-size="11.00" fill="#000000">...</text>
<polygon fill="#ffffff" stroke="transparent" points="318,-37.7 318,-56.7 396,-56.7 396,-37.7 318,-37.7"/>
<polygon fill="none" stroke="#000000" points="318,-37.7 318,-56.7 396,-56.7 396,-37.7 318,-37.7"/>
<text text-anchor="start" x="321" y="-43.8" font-family="Helvetica,sans-Serif" font-size="11.00" fill="#000000">&lt; 1</text>
<polygon fill="#ffffff" stroke="transparent" points="396,-37.7 396,-56.7 437,-56.7 437,-37.7 396,-37.7"/>
<polygon fill="none" stroke="#000000" points="396,-37.7 396,-56.7 437,-56.7 437,-37.7 396,-37.7"/>
<text text-anchor="start" x="427.8862" y="-43.8" font-family="Helvetica,sans-Serif" font-size="11.00" fill="#000000"> &#160;</text>
<polygon fill="#ffffff" stroke="transparent" points="437,-37.7 437,-56.7 478,-56.7 478,-37.7 437,-37.7"/>
<polygon fill="none" stroke="#000000" points="437,-37.7 437,-56.7 478,-56.7 478,-37.7 437,-37.7"/>
<text text-anchor="start" x="468.8862" y="-43.8" font-family="Helvetica,sans-Serif" font-size="11.00" fill="#000000"> &#160;</text>
</a>
</g>
</g>
<!-- prisoner_iep_level&#45;&gt;incentive_level -->
<g id="edge2" class="edge">
<title>prisoner_iep_level:w&#45;&gt;incentive_level:e</title>
<path fill="none" stroke="#000000" d="M303.7206,-88.8314C253.498,-105.6039 289.1575,-215.7 223.5,-215.7"/>
<polygon fill="#000000" stroke="#000000" points="310.0877,-87.8811 318.5315,-90.2606 314.0438,-87.2905 318,-86.7 318,-86.7 318,-86.7 314.0438,-87.2905 317.4685,-83.1394 310.0877,-87.8811 310.0877,-87.8811"/>
<ellipse fill="none" stroke="#000000" cx="306.9227" cy="-88.3535" rx="3.2" ry="3.2"/>
</g>
</g>
</svg>
